<?xml version="1.0" encoding="UTF-8" standalone="no"?>
<!-- Created with Inkscape (http://www.inkscape.org/) -->

<svg
   xmlns:dc="http://purl.org/dc/elements/1.1/"
   xmlns:cc="http://creativecommons.org/ns#"
   xmlns:rdf="http://www.w3.org/1999/02/22-rdf-syntax-ns#"
   xmlns:svg="http://www.w3.org/2000/svg"
   xmlns="http://www.w3.org/2000/svg"
   xmlns:xlink="http://www.w3.org/1999/xlink"
   xmlns:sodipodi="http://sodipodi.sourceforge.net/DTD/sodipodi-0.dtd"
   xmlns:inkscape="http://www.inkscape.org/namespaces/inkscape"
   width="180"
   height="45"
   viewBox="0 0 47.625001 11.90625"
   version="1.1"
   id="svg8"
   inkscape:version="0.92.4 (5da689c313, 2019-01-14)"
   sodipodi:docname="squash_logo.svg">
  <defs
     id="defs2">
    <linearGradient
       inkscape:collect="always"
       id="linearGradient963">
      <stop
         style="stop-color:#6200ee;stop-opacity:1;"
         offset="0"
         id="stop959" />
      <stop
         style="stop-color:#6200ee;stop-opacity:0;"
         offset="1"
         id="stop961" />
    </linearGradient>
    <linearGradient
       x1="17.045849"
       y1="124.67077"
       x2="132.63301"
       y2="223.79634"
       id="linearGradient2414"
       xlink:href="#linearGradient3429"
       gradientUnits="userSpaceOnUse"
       gradientTransform="matrix(0.2361466,0,0,0.2361466,2.0795258,-20.941604)" />
    <linearGradient
       id="linearGradient3429">
      <stop
         id="stop3431"
         style="stop-color:#474747;stop-opacity:1"
         offset="0" />
      <stop
         id="stop3433"
         style="stop-color:#111111;stop-opacity:1"
         offset="1" />
    </linearGradient>
    <linearGradient
       id="linearGradient3397">
      <stop
         id="stop3399"
         style="stop-color:#bca606;stop-opacity:1"
         offset="0" />
      <stop
         id="stop3401"
         style="stop-color:#f9e238;stop-opacity:1"
         offset="1" />
    </linearGradient>
    <linearGradient
       x1="40.806789"
       y1="100.66119"
       x2="71.311241"
       y2="125.64357"
       id="linearGradient2420"
       xlink:href="#linearGradient3362"
       gradientUnits="userSpaceOnUse"
       gradientTransform="matrix(1.007559,0,0,1.007559,-40.28546,-98.688773)" />
    <linearGradient
       id="linearGradient3362">
      <stop
         id="stop3364"
         style="stop-color:#e6e6e6;stop-opacity:1"
         offset="0" />
      <stop
         id="stop3366"
         style="stop-color:#e6e6e6;stop-opacity:0"
         offset="1" />
    </linearGradient>
    <linearGradient
       inkscape:collect="always"
       xlink:href="#linearGradient3397"
       id="linearGradient1025-8"
       gradientUnits="userSpaceOnUse"
       x1="-278.4653"
       y1="193.44319"
       x2="-270.36649"
       y2="202.4536" />
    <linearGradient
       inkscape:collect="always"
       xlink:href="#linearGradient3397"
       id="linearGradient927"
       gradientUnits="userSpaceOnUse"
       x1="-278.4653"
       y1="193.44319"
       x2="-270.36649"
       y2="202.4536" />
    <linearGradient
       inkscape:collect="always"
       xlink:href="#linearGradient963"
       id="linearGradient967"
       x1="76.645348"
       y1="77.52594"
       x2="114.20013"
       y2="77.52594"
       gradientUnits="userSpaceOnUse" />
  </defs>
  <sodipodi:namedview
     id="base"
     pagecolor="#ffffff"
     bordercolor="#666666"
     borderopacity="1.0"
     inkscape:pageopacity="0.0"
     inkscape:pageshadow="2"
     inkscape:zoom="8"
     inkscape:cx="103.26162"
     inkscape:cy="17.509048"
     inkscape:document-units="mm"
     inkscape:current-layer="text884-9"
     showgrid="false"
     inkscape:window-width="2560"
     inkscape:window-height="1377"
     inkscape:window-x="2552"
     inkscape:window-y="-8"
     inkscape:window-maximized="1"
     fit-margin-top="0"
     fit-margin-left="0"
     fit-margin-right="0"
     fit-margin-bottom="0"
     units="px" />
  <metadata
     id="metadata5">
    <rdf:RDF>
      <cc:Work
         rdf:about="">
        <dc:format>image/svg+xml</dc:format>
        <dc:type
           rdf:resource="http://purl.org/dc/dcmitype/StillImage" />
        <dc:title />
      </cc:Work>
    </rdf:RDF>
  </metadata>
  <g
     inkscape:label="Layer 1"
     inkscape:groupmode="layer"
     id="layer1"
     transform="translate(-67.426633,-56.799881)">
    <flowRoot
       xml:space="preserve"
       id="flowRoot886"
       style="font-style:italic;font-variant:normal;font-weight:bold;font-stretch:normal;font-size:40px;line-height:1.25;font-family:'Segoe UI';-inkscape-font-specification:'Segoe UI, Bold Italic';font-variant-ligatures:normal;font-variant-caps:normal;font-variant-numeric:normal;font-feature-settings:normal;text-align:start;letter-spacing:0px;word-spacing:0px;writing-mode:lr-tb;text-anchor:start;fill:#000000;fill-opacity:1;stroke:none"><flowRegion
         id="flowRegion888"><rect
           id="rect890"
           width="191.67645"
           height="75.00383"
           x="223.24371"
           y="141.40903" /></flowRegion><flowPara
         id="flowPara892" /></flowRoot>    <flowRoot
       xml:space="preserve"
       id="flowRoot860"
       style="font-style:italic;font-variant:normal;font-weight:bold;font-stretch:normal;font-size:40px;line-height:1.25;font-family:'Segoe UI';-inkscape-font-specification:'Segoe UI, Bold Italic';font-variant-ligatures:normal;font-variant-caps:normal;font-variant-numeric:normal;font-feature-settings:normal;text-align:start;letter-spacing:0px;word-spacing:0px;writing-mode:lr-tb;text-anchor:start;fill:#000000;fill-opacity:1;stroke:none"
       transform="scale(0.26458333)"><flowRegion
         id="flowRegion862"><rect
           id="rect864"
           width="167.18025"
           height="53.790623"
           x="232.58762"
           y="216.41286" /></flowRegion><flowPara
         id="flowPara866" /></flowRoot>    <g
       aria-label="Squash"
       style="font-style:normal;font-variant:normal;font-weight:normal;font-stretch:normal;font-size:11.28888893px;line-height:1.25;font-family:Raleway;-inkscape-font-specification:'Raleway, Normal';font-variant-ligatures:normal;font-variant-caps:normal;font-variant-numeric:normal;font-feature-settings:normal;text-align:start;letter-spacing:0px;word-spacing:0px;writing-mode:lr-tb;text-anchor:start;fill:#000000;fill-opacity:1;stroke:none;stroke-width:0.26458332;paint-order:stroke fill markers"
       id="text884-9">
      <path
         d="m 82.416933,59.113745 q -0.169333,-0.191911 -0.395111,-0.338667 -0.225778,-0.158044 -0.508,-0.270933 -0.282222,-0.112889 -0.6096,-0.180622 -0.316089,-0.06773 -0.677333,-0.06773 -1.049867,0 -1.546578,0.4064 -0.485422,0.395111 -0.485422,1.083734 0,0.474133 0.225777,0.745066 0.237067,0.270934 0.733778,0.440267 0.496711,0.169333 1.264356,0.349956 0.857955,0.180622 1.478844,0.428977 0.620889,0.248356 0.959556,0.677334 0.338666,0.417689 0.338666,1.140177 0,0.553156 -0.214488,0.959556 -0.214489,0.4064 -0.598312,0.677333 -0.383822,0.270934 -0.9144,0.4064 -0.530577,0.124178 -1.162755,0.124178 -0.620889,0 -1.196622,-0.124178 -0.564445,-0.135466 -1.072445,-0.383822 -0.508,-0.259644 -0.948266,-0.654755 l 0.395111,-0.643467 q 0.214489,0.225778 0.508,0.428978 0.3048,0.191911 0.666044,0.349955 0.372533,0.158045 0.790222,0.248356 0.428978,0.07902 0.880534,0.07902 0.959555,0 1.490133,-0.349956 0.541867,-0.349955 0.541867,-1.038577 0,-0.496711 -0.270934,-0.790223 -0.270933,-0.3048 -0.8128,-0.496711 -0.541866,-0.191911 -1.332089,-0.372533 -0.835377,-0.191911 -1.411111,-0.428978 -0.575733,-0.237066 -0.869244,-0.620889 -0.282222,-0.395111 -0.282222,-1.038577 0,-0.745067 0.361244,-1.253067 0.372533,-0.519289 1.016,-0.778933 0.643467,-0.270934 1.478845,-0.270934 0.530577,0 0.982133,0.112889 0.462844,0.1016 0.846667,0.3048 0.395111,0.2032 0.733777,0.508 z"
         style="font-style:normal;font-variant:normal;font-weight:normal;font-stretch:normal;font-size:11.28888893px;font-family:Raleway;-inkscape-font-specification:'Raleway, Normal';font-variant-ligatures:normal;font-variant-caps:normal;font-variant-numeric:normal;font-feature-settings:normal;text-align:start;writing-mode:lr-tb;text-anchor:start;fill:#000000;fill-opacity:1;stroke-width:0.26458332;paint-order:stroke fill markers"
         id="path848" />
      <path
         d="m 86.700185,65.740323 q -0.598312,0 -1.095023,-0.248356 -0.485422,-0.248355 -0.835377,-0.677333 -0.349956,-0.428978 -0.541867,-0.970845 -0.191911,-0.553155 -0.191911,-1.151466 0,-0.620889 0.214489,-1.162756 0.214489,-0.553155 0.587022,-0.970844 0.383822,-0.428978 0.891822,-0.666045 0.519289,-0.248355 1.106311,-0.248355 0.688622,0 1.264356,0.361244 0.587022,0.349956 0.9144,0.891822 v -1.151466 h 0.688622 v 8.286044 h -0.767644 v -3.623733 q -0.869245,1.332089 -2.2352,1.332089 z m 0.237066,-0.677334 q 0.462845,0 0.835378,-0.180622 0.383822,-0.191911 0.666044,-0.508 0.293512,-0.316089 0.496712,-0.699911 v -1.817511 q -0.03387,-0.3048 -0.225778,-0.575733 -0.191911,-0.282223 -0.474134,-0.496712 -0.282222,-0.225777 -0.6096,-0.338666 -0.327377,-0.124178 -0.643466,-0.124178 -0.485422,0 -0.880534,0.2032 -0.383822,0.2032 -0.677333,0.541867 -0.293511,0.338666 -0.451555,0.767644 -0.158045,0.428978 -0.158045,0.869245 0,0.632177 0.270933,1.174044 0.282223,0.541867 0.756356,0.869244 0.474133,0.316089 1.095022,0.316089 z"
         style="font-style:normal;font-variant:normal;font-weight:normal;font-stretch:normal;font-size:11.28888893px;font-family:Raleway;-inkscape-font-specification:'Raleway, Normal';font-variant-ligatures:normal;font-variant-caps:normal;font-variant-numeric:normal;font-feature-settings:normal;text-align:start;writing-mode:lr-tb;text-anchor:start;fill:#000000;fill-opacity:1;stroke-width:0.26458332;paint-order:stroke fill markers"
         id="path850" />
      <path
         d="m 91.342034,63.200323 v -3.4544 h 0.767645 v 3.318933 q 0,1.004711 0.338667,1.501422 0.349955,0.496711 1.027288,0.496711 0.451556,0 0.869245,-0.191911 0.428978,-0.2032 0.756355,-0.564444 0.327378,-0.372534 0.496712,-0.857956 v -3.702755 h 0.767644 v 4.955822 q 0,0.158044 0.06773,0.237067 0.06773,0.06773 0.2032,0.07902 v 0.6096 q -0.135466,0.01129 -0.214489,0.01129 -0.07902,0.01129 -0.146755,0.01129 -0.225778,-0.02258 -0.395111,-0.180623 -0.158045,-0.158044 -0.169334,-0.383822 l -0.02258,-0.790222 q -0.383823,0.677333 -1.049867,1.061155 -0.654756,0.383823 -1.4224,0.383823 -0.925689,0 -1.399822,-0.643467 -0.474134,-0.643467 -0.474134,-1.896533 z"
         style="font-style:normal;font-variant:normal;font-weight:normal;font-stretch:normal;font-size:11.28888893px;font-family:Raleway;-inkscape-font-specification:'Raleway, Normal';font-variant-ligatures:normal;font-variant-caps:normal;font-variant-numeric:normal;font-feature-settings:normal;text-align:start;writing-mode:lr-tb;text-anchor:start;fill:#000000;fill-opacity:1;stroke-width:0.26458332;paint-order:stroke fill markers"
         id="path852" />
      <path
         d="m 97.627122,63.9341 q 0,-0.553155 0.316089,-0.948266 0.316089,-0.4064 0.869245,-0.620889 0.564444,-0.225778 1.298224,-0.225778 0.42898,0 0.89182,0.06773 0.46284,0.06773 0.82409,0.2032 v -0.496711 q 0,-0.745066 -0.44027,-1.185333 -0.44026,-0.440267 -1.2192,-0.440267 -0.474131,0 -0.936975,0.180623 -0.451556,0.169333 -0.948267,0.508 l -0.293511,-0.541867 q 0.575733,-0.395111 1.128889,-0.587022 0.553155,-0.2032 1.128884,-0.2032 1.08374,0 1.71592,0.620889 0.63217,0.620888 0.63217,1.715911 v 2.720622 q 0,0.158044 0.0677,0.237067 0.0677,0.06773 0.21449,0.07902 v 0.6096 q -0.12418,0.01129 -0.21449,0.02258 -0.0903,0.01129 -0.13547,0 -0.28222,-0.01129 -0.42898,-0.180623 -0.14675,-0.169333 -0.15804,-0.361244 l -0.0113,-0.428978 q -0.39511,0.508 -1.02729,0.790222 -0.63218,0.270934 -1.286933,0.270934 -0.564445,0 -1.027289,-0.237067 -0.451556,-0.248356 -0.7112,-0.654756 -0.248356,-0.417688 -0.248356,-0.9144 z m 3.939818,0.451556 q 0.12418,-0.158044 0.19192,-0.3048 0.0677,-0.146756 0.0677,-0.259644 v -0.857956 q -0.38382,-0.146756 -0.80151,-0.225778 -0.4064,-0.07902 -0.82409,-0.07902 -0.82409,0 -1.33209,0.327378 -0.508,0.327378 -0.508,0.891822 0,0.327378 0.169334,0.620889 0.169333,0.282222 0.496711,0.474133 0.327377,0.180622 0.767644,0.180622 0.553151,0 1.027291,-0.214488 0.48542,-0.214489 0.74506,-0.553156 z"
         style="font-style:normal;font-variant:normal;font-weight:normal;font-stretch:normal;font-size:11.28888893px;font-family:Raleway;-inkscape-font-specification:'Raleway, Normal';font-variant-ligatures:normal;font-variant-caps:normal;font-variant-numeric:normal;font-feature-settings:normal;text-align:start;writing-mode:lr-tb;text-anchor:start;fill:#000000;fill-opacity:1;stroke-width:0.26458332;paint-order:stroke fill markers"
         id="path854" />
      <path
         d="m 106.18322,65.740323 q -0.72249,0 -1.34338,-0.237067 -0.62089,-0.237067 -1.07244,-0.722489 l 0.31609,-0.541867 q 0.49671,0.462845 0.99342,0.677334 0.508,0.2032 1.07244,0.2032 0.68862,0 1.1176,-0.270934 0.42898,-0.282222 0.42898,-0.801511 0,-0.349955 -0.21449,-0.530577 -0.2032,-0.191912 -0.59831,-0.3048 -0.38382,-0.124178 -0.92569,-0.259645 -0.6096,-0.169333 -1.02729,-0.349955 -0.4064,-0.191912 -0.62089,-0.474134 -0.2032,-0.293511 -0.2032,-0.756355 0,-0.575734 0.28223,-0.948267 0.29351,-0.383822 0.79022,-0.575733 0.508,-0.2032 1.12889,-0.2032 0.67733,0 1.19662,0.214489 0.51929,0.214488 0.84667,0.598311 l -0.37254,0.519289 q -0.31609,-0.361245 -0.75635,-0.530578 -0.42898,-0.180622 -0.95956,-0.180622 -0.36124,0 -0.68862,0.1016 -0.32738,0.09031 -0.54187,0.316088 -0.2032,0.214489 -0.2032,0.598312 0,0.316088 0.15805,0.496711 0.15804,0.169333 0.47413,0.293511 0.31609,0.112889 0.77893,0.248355 0.66605,0.180623 1.16276,0.372534 0.49671,0.180622 0.76764,0.474133 0.27094,0.293511 0.27094,0.824089 0,0.824089 -0.62089,1.286933 -0.62089,0.462845 -1.63689,0.462845 z"
         style="font-style:normal;font-variant:normal;font-weight:normal;font-stretch:normal;font-size:11.28888893px;font-family:Raleway;-inkscape-font-specification:'Raleway, Normal';font-variant-ligatures:normal;font-variant-caps:normal;font-variant-numeric:normal;font-feature-settings:normal;text-align:start;writing-mode:lr-tb;text-anchor:start;fill:#000000;fill-opacity:1;stroke-width:0.26458332;paint-order:stroke fill markers"
         id="path856" />
      <path
         d="m 114.64336,65.627434 h -0.76765 v -3.285067 q 0,-0.993422 -0.34995,-1.490133 -0.34996,-0.508 -1.00471,-0.508 -0.42898,0 -0.85796,0.225778 -0.41769,0.214488 -0.74507,0.598311 -0.31608,0.372533 -0.45155,0.857955 v 3.601156 h -0.76765 v -8.240889 h 0.76765 v 3.691467 q 0.34995,-0.654756 0.97084,-1.038578 0.63218,-0.395111 1.34338,-0.395111 0.508,0 0.85796,0.180622 0.36124,0.180622 0.57573,0.530578 0.22578,0.338666 0.32738,0.801511 0.1016,0.451555 0.1016,1.027289 z"
         style="font-style:normal;font-variant:normal;font-weight:normal;font-stretch:normal;font-size:11.28888893px;font-family:Raleway;-inkscape-font-specification:'Raleway, Normal';font-variant-ligatures:normal;font-variant-caps:normal;font-variant-numeric:normal;font-feature-settings:normal;text-align:start;writing-mode:lr-tb;text-anchor:start;fill:#000000;fill-opacity:1;stroke-width:0.26458332;paint-order:stroke fill markers"
         id="path858" />
    </g>
    <g
       id="g1086-4-8"
       transform="matrix(0.21237482,0,0,0.21237482,67.731798,57.325492)">
      <path
         style="fill:url(#linearGradient2414);fill-opacity:1;fill-rule:nonzero;stroke:none;stroke-width:2;stroke-linecap:round;stroke-linejoin:miter;stroke-miterlimit:4;stroke-dasharray:none;stroke-dashoffset:0;stroke-opacity:1"
         id="path2579-7-5"
         d="M 39.305126,20.097617 C 39.306872,30.722709 30.694023,39.336974 20.06893,39.336974 9.4438383,39.336974 0.83098891,30.722709 0.83273501,20.097617 0.83098891,9.472525 9.4438383,0.85826 20.06893,0.85826 c 10.625093,0 19.237942,8.614265 19.236196,19.239357 z"
         inkscape:connector-curvature="0" />
      <g
         id="g3405-3-1"
         transform="matrix(0.2023605,0.05261402,-0.08535221,0.1801688,82.466007,8.8909557)">
        <path
           style="opacity:1;fill:#dec50c;fill-opacity:1;fill-rule:nonzero;stroke:none;stroke-width:2;stroke-linecap:round;stroke-linejoin:miter;stroke-miterlimit:4;stroke-dasharray:none;stroke-dashoffset:0;stroke-opacity:1"
           id="path3387-2-5"
           transform="matrix(1,0,0.4754098,1,-74.950861,-0.1885618)"
           d="m -268.37291,198.11153 c 0,2.96799 -2.63715,5.37401 -5.89024,5.37401 -3.25309,0 -5.89024,-2.40602 -5.89024,-5.37401 0,-2.96799 2.63715,-5.37401 5.89024,-5.37401 3.25309,0 5.89024,2.40602 5.89024,5.37401 z"
           inkscape:connector-curvature="0" />
        <path
           style="opacity:1;fill:url(#linearGradient927);fill-opacity:1;fill-rule:nonzero;stroke:none;stroke-width:2;stroke-linecap:round;stroke-linejoin:miter;stroke-miterlimit:4;stroke-dasharray:none;stroke-dashoffset:0;stroke-opacity:1"
           id="path3395-9-2"
           transform="matrix(0.8684211,0,0.4128559,0.8684211,-98.645465,25.878744)"
           d="m -268.37291,198.11153 c 0,2.96799 -2.63715,5.37401 -5.89024,5.37401 -3.25309,0 -5.89024,-2.40602 -5.89024,-5.37401 0,-2.96799 2.63715,-5.37401 5.89024,-5.37401 3.25309,0 5.89024,2.40602 5.89024,5.37401 z"
           inkscape:connector-curvature="0" />
      </g>
      <g
         id="g3421-6-9"
         transform="matrix(0.178447,0.04171819,-0.00606089,0.1428576,57.615972,16.027556)">
        <path
           style="opacity:1;fill:#dec50c;fill-opacity:1;fill-rule:nonzero;stroke:none;stroke-width:2;stroke-linecap:round;stroke-linejoin:miter;stroke-miterlimit:4;stroke-dasharray:none;stroke-dashoffset:0;stroke-opacity:1"
           id="path3423-2-1"
           transform="matrix(1,0,0.4754098,1,-74.950861,-0.1885618)"
           d="m -268.37291,198.11153 c 0,2.96799 -2.63715,5.37401 -5.89024,5.37401 -3.25309,0 -5.89024,-2.40602 -5.89024,-5.37401 0,-2.96799 2.63715,-5.37401 5.89024,-5.37401 3.25309,0 5.89024,2.40602 5.89024,5.37401 z"
           inkscape:connector-curvature="0" />
        <path
           style="opacity:1;fill:url(#linearGradient1025-8);fill-opacity:1;fill-rule:nonzero;stroke:none;stroke-width:2;stroke-linecap:round;stroke-linejoin:miter;stroke-miterlimit:4;stroke-dasharray:none;stroke-dashoffset:0;stroke-opacity:1"
           id="path3425-6-1"
           transform="matrix(0.8684211,0,0.4128559,0.8684211,-98.645465,25.878744)"
           d="m -268.37291,198.11153 c 0,2.96799 -2.63715,5.37401 -5.89024,5.37401 -3.25309,0 -5.89024,-2.40602 -5.89024,-5.37401 0,-2.96799 2.63715,-5.37401 5.89024,-5.37401 3.25309,0 5.89024,2.40602 5.89024,5.37401 z"
           inkscape:connector-curvature="0" />
      </g>
      <path
         style="opacity:0.75;fill:url(#linearGradient2420);fill-opacity:1;fill-rule:nonzero;stroke:none;stroke-width:2;stroke-linecap:round;stroke-linejoin:miter;stroke-miterlimit:4;stroke-dashoffset:0;stroke-opacity:1"
         id="path4757-3-9"
         d="m 20.073665,2.4194015 c -9.770385,0 -17.6835644,7.9131785 -17.6835645,17.6835645 0,1.626563 0.2732132,3.130984 0.6356836,4.507575 0.216304,0.77539 0.8770957,1.345038 1.6758934,1.444735 0.5127376,0.06881 1.261956,0.288947 2.2826823,0.288947 9.7664542,0 17.5679842,-7.908265 17.5679852,-17.6835636 0,-1.6298106 -0.230358,-3.1031294 -0.548999,-4.4497857 C 23.807153,3.4128711 23.142059,2.8165813 22.327452,2.7083487 21.835976,2.6433166 21.094043,2.4194015 20.073665,2.4194015 Z"
         inkscape:connector-curvature="0" />
    </g>
  </g>
</svg>
