<?xml version="1.0" encoding="UTF-8" standalone="no"?>
<!-- Created with Inkscape (http://www.inkscape.org/) -->

<svg
   xmlns:dc="http://purl.org/dc/elements/1.1/"
   xmlns:cc="http://creativecommons.org/ns#"
   xmlns:rdf="http://www.w3.org/1999/02/22-rdf-syntax-ns#"
   xmlns:svg="http://www.w3.org/2000/svg"
   xmlns="http://www.w3.org/2000/svg"
   xmlns:xlink="http://www.w3.org/1999/xlink"
   xmlns:sodipodi="http://sodipodi.sourceforge.net/DTD/sodipodi-0.dtd"
   xmlns:inkscape="http://www.inkscape.org/namespaces/inkscape"
   width="259.5282"
   height="42.234665"
   viewBox="0 0 68.666837 11.174588"
   version="1.1"
   id="svg8"
   inkscape:version="0.92.4 (5da689c313, 2019-01-14)"
   sodipodi:docname="squash_logo_new.svg"
   inkscape:export-filename="D:\__Squash App\Pictures\new logo 2021.08.13\squash_logo_200.png"
   inkscape:export-xdpi="73.980003"
   inkscape:export-ydpi="73.980003">
  <defs
     id="defs2">
    <linearGradient
       inkscape:collect="always"
       id="linearGradient963">
      <stop
         style="stop-color:#6200ee;stop-opacity:1;"
         offset="0"
         id="stop959" />
      <stop
         style="stop-color:#6200ee;stop-opacity:0;"
         offset="1"
         id="stop961" />
    </linearGradient>
    <linearGradient
       x1="17.045849"
       y1="124.67077"
       x2="132.63301"
       y2="223.79634"
       id="linearGradient2414"
       xlink:href="#linearGradient3429"
       gradientUnits="userSpaceOnUse"
       gradientTransform="matrix(0.2361466,0,0,0.2361466,2.0795258,-20.941604)" />
    <linearGradient
       id="linearGradient3429">
      <stop
         id="stop3431"
         style="stop-color:#474747;stop-opacity:1"
         offset="0" />
      <stop
         id="stop3433"
         style="stop-color:#111111;stop-opacity:1"
         offset="1" />
    </linearGradient>
    <linearGradient
       id="linearGradient3397">
      <stop
         id="stop3399"
         style="stop-color:#bca606;stop-opacity:1"
         offset="0" />
      <stop
         id="stop3401"
         style="stop-color:#f9e238;stop-opacity:1"
         offset="1" />
    </linearGradient>
    <linearGradient
       x1="40.806789"
       y1="100.66119"
       x2="71.311241"
       y2="125.64357"
       id="linearGradient2420"
       xlink:href="#linearGradient3362"
       gradientUnits="userSpaceOnUse"
       gradientTransform="matrix(1.007559,0,0,1.007559,-40.28546,-98.688773)" />
    <linearGradient
       id="linearGradient3362">
      <stop
         id="stop3364"
         style="stop-color:#e6e6e6;stop-opacity:1"
         offset="0" />
      <stop
         id="stop3366"
         style="stop-color:#e6e6e6;stop-opacity:0"
         offset="1" />
    </linearGradient>
    <linearGradient
       inkscape:collect="always"
       xlink:href="#linearGradient3397"
       id="linearGradient1025-8"
       gradientUnits="userSpaceOnUse"
       x1="-278.4653"
       y1="193.44319"
       x2="-270.36649"
       y2="202.4536" />
    <linearGradient
       inkscape:collect="always"
       xlink:href="#linearGradient3397"
       id="linearGradient927"
       gradientUnits="userSpaceOnUse"
       x1="-278.4653"
       y1="193.44319"
       x2="-270.36649"
       y2="202.4536" />
    <linearGradient
       inkscape:collect="always"
       xlink:href="#linearGradient963"
       id="linearGradient967"
       x1="76.645348"
       y1="77.52594"
       x2="114.20013"
       y2="77.52594"
       gradientUnits="userSpaceOnUse" />
  </defs>
  <sodipodi:namedview
     id="base"
     pagecolor="#ffffff"
     bordercolor="#666666"
     borderopacity="1.0"
     inkscape:pageopacity="0.0"
     inkscape:pageshadow="2"
     inkscape:zoom="6.3312401"
     inkscape:cx="142.77603"
     inkscape:cy="14.541377"
     inkscape:document-units="mm"
     inkscape:current-layer="layer1"
     showgrid="false"
     inkscape:window-width="2560"
     inkscape:window-height="1377"
     inkscape:window-x="2552"
     inkscape:window-y="-8"
     inkscape:window-maximized="1"
     fit-margin-top="1"
     fit-margin-left="1"
     fit-margin-right="1"
     fit-margin-bottom="1"
     units="px" />
  <metadata
     id="metadata5">
    <rdf:RDF>
      <cc:Work
         rdf:about="">
        <dc:format>image/svg+xml</dc:format>
        <dc:type
           rdf:resource="http://purl.org/dc/dcmitype/StillImage" />
        <dc:title></dc:title>
      </cc:Work>
    </rdf:RDF>
  </metadata>
  <g
     inkscape:label="Layer 1"
     inkscape:groupmode="layer"
     id="layer1"
     transform="translate(-67.884226,-57.121962)">
    <flowRoot
       xml:space="preserve"
       id="flowRoot886"
       style="font-style:italic;font-variant:normal;font-weight:bold;font-stretch:normal;font-size:40px;line-height:1.25;font-family:'Segoe UI';-inkscape-font-specification:'Segoe UI, Bold Italic';font-variant-ligatures:normal;font-variant-caps:normal;font-variant-numeric:normal;font-feature-settings:normal;text-align:start;letter-spacing:0px;word-spacing:0px;writing-mode:lr-tb;text-anchor:start;fill:#000000;fill-opacity:1;stroke:none"><flowRegion
         id="flowRegion888"><rect
           id="rect890"
           width="191.67645"
           height="75.00383"
           x="223.24371"
           y="141.40903" /></flowRegion><flowPara
         id="flowPara892" /></flowRoot>    <flowRoot
       xml:space="preserve"
       id="flowRoot860"
       style="font-style:italic;font-variant:normal;font-weight:bold;font-stretch:normal;font-size:40px;line-height:1.25;font-family:'Segoe UI';-inkscape-font-specification:'Segoe UI, Bold Italic';font-variant-ligatures:normal;font-variant-caps:normal;font-variant-numeric:normal;font-feature-settings:normal;text-align:start;letter-spacing:0px;word-spacing:0px;writing-mode:lr-tb;text-anchor:start;fill:#000000;fill-opacity:1;stroke:none"
       transform="scale(0.26458333)"><flowRegion
         id="flowRegion862"><rect
           id="rect864"
           width="167.18025"
           height="53.790623"
           x="232.58762"
           y="216.41286" /></flowRegion><flowPara
         id="flowPara866" /></flowRoot>    <g
       aria-label="Squashable"
       style="font-style:normal;font-variant:normal;font-weight:normal;font-stretch:normal;font-size:11.28888893px;line-height:1.25;font-family:Raleway;-inkscape-font-specification:'Raleway, Normal';font-variant-ligatures:normal;font-variant-caps:normal;font-variant-numeric:normal;font-feature-settings:normal;text-align:start;letter-spacing:0px;word-spacing:0px;writing-mode:lr-tb;text-anchor:start;fill:#000000;fill-opacity:1;stroke:none;stroke-width:0.26458332;paint-order:stroke fill markers"
       id="text884-9"
       transform="translate(-1.6298146)">
      <path
         d="m 86.700185,65.740323 q -0.598312,0 -1.095023,-0.248356 -0.485422,-0.248355 -0.835377,-0.677333 -0.349956,-0.428978 -0.541867,-0.970845 -0.191911,-0.553155 -0.191911,-1.151466 0,-0.620889 0.214489,-1.162756 0.214489,-0.553155 0.587022,-0.970844 0.383822,-0.428978 0.891822,-0.666045 0.519289,-0.248355 1.106311,-0.248355 0.688622,0 1.264356,0.361244 0.587022,0.349956 0.9144,0.891822 v -1.151466 h 0.688622 v 8.286044 h -0.767644 v -3.623733 q -0.869245,1.332089 -2.2352,1.332089 z m 0.237066,-0.677334 q 0.462845,0 0.835378,-0.180622 0.383822,-0.191911 0.666044,-0.508 0.293512,-0.316089 0.496712,-0.699911 v -1.817511 q -0.03387,-0.3048 -0.225778,-0.575733 -0.191911,-0.282223 -0.474134,-0.496712 -0.282222,-0.225777 -0.6096,-0.338666 -0.327377,-0.124178 -0.643466,-0.124178 -0.485422,0 -0.880534,0.2032 -0.383822,0.2032 -0.677333,0.541867 -0.293511,0.338666 -0.451555,0.767644 -0.158045,0.428978 -0.158045,0.869245 0,0.632177 0.270933,1.174044 0.282223,0.541867 0.756356,0.869244 0.474133,0.316089 1.095022,0.316089 z"
         style="font-style:normal;font-variant:normal;font-weight:normal;font-stretch:normal;font-size:11.28888893px;font-family:Raleway;-inkscape-font-specification:'Raleway, Normal';font-variant-ligatures:normal;font-variant-caps:normal;font-variant-numeric:normal;font-feature-settings:normal;text-align:start;writing-mode:lr-tb;text-anchor:start;fill:#000000;fill-opacity:1;stroke-width:0.26458332;paint-order:stroke fill markers"
         id="path4629"
         inkscape:connector-curvature="0" />
      <path
         d="m 91.342034,63.200323 v -3.4544 h 0.767645 v 3.318933 q 0,1.004711 0.338667,1.501422 0.349955,0.496711 1.027288,0.496711 0.451556,0 0.869245,-0.191911 0.428978,-0.2032 0.756355,-0.564444 0.327378,-0.372534 0.496712,-0.857956 v -3.702755 h 0.767644 v 4.955822 q 0,0.158044 0.06773,0.237067 0.06773,0.06773 0.2032,0.07902 v 0.6096 q -0.135466,0.01129 -0.214489,0.01129 -0.07902,0.01129 -0.146755,0.01129 -0.225778,-0.02258 -0.395111,-0.180623 -0.158045,-0.158044 -0.169334,-0.383822 l -0.02258,-0.790222 q -0.383823,0.677333 -1.049867,1.061155 -0.654756,0.383823 -1.4224,0.383823 -0.925689,0 -1.399822,-0.643467 -0.474134,-0.643467 -0.474134,-1.896533 z"
         style="font-style:normal;font-variant:normal;font-weight:normal;font-stretch:normal;font-size:11.28888893px;font-family:Raleway;-inkscape-font-specification:'Raleway, Normal';font-variant-ligatures:normal;font-variant-caps:normal;font-variant-numeric:normal;font-feature-settings:normal;text-align:start;writing-mode:lr-tb;text-anchor:start;fill:#000000;fill-opacity:1;stroke-width:0.26458332;paint-order:stroke fill markers"
         id="path4631"
         inkscape:connector-curvature="0" />
      <path
         d="m 97.627122,63.9341 q 0,-0.553155 0.316089,-0.948266 0.316089,-0.4064 0.869245,-0.620889 0.564444,-0.225778 1.298224,-0.225778 0.42898,0 0.89182,0.06773 0.46284,0.06773 0.82409,0.2032 v -0.496711 q 0,-0.745066 -0.44027,-1.185333 -0.44026,-0.440267 -1.2192,-0.440267 -0.474131,0 -0.936975,0.180623 -0.451556,0.169333 -0.948267,0.508 l -0.293511,-0.541867 q 0.575733,-0.395111 1.128889,-0.587022 0.553155,-0.2032 1.128884,-0.2032 1.08374,0 1.71592,0.620889 0.63217,0.620888 0.63217,1.715911 v 2.720622 q 0,0.158044 0.0677,0.237067 0.0677,0.06773 0.21449,0.07902 v 0.6096 q -0.12418,0.01129 -0.21449,0.02258 -0.0903,0.01129 -0.13547,0 -0.28222,-0.01129 -0.42898,-0.180623 -0.14675,-0.169333 -0.15804,-0.361244 l -0.0113,-0.428978 q -0.39511,0.508 -1.02729,0.790222 -0.63218,0.270934 -1.286933,0.270934 -0.564445,0 -1.027289,-0.237067 -0.451556,-0.248356 -0.7112,-0.654756 -0.248356,-0.417688 -0.248356,-0.9144 z m 3.939818,0.451556 q 0.12418,-0.158044 0.19192,-0.3048 0.0677,-0.146756 0.0677,-0.259644 v -0.857956 q -0.38382,-0.146756 -0.80151,-0.225778 -0.4064,-0.07902 -0.82409,-0.07902 -0.82409,0 -1.33209,0.327378 -0.508,0.327378 -0.508,0.891822 0,0.327378 0.169334,0.620889 0.169333,0.282222 0.496711,0.474133 0.327377,0.180622 0.767644,0.180622 0.553151,0 1.027291,-0.214488 0.48542,-0.214489 0.74506,-0.553156 z"
         style="font-style:normal;font-variant:normal;font-weight:normal;font-stretch:normal;font-size:11.28888893px;font-family:Raleway;-inkscape-font-specification:'Raleway, Normal';font-variant-ligatures:normal;font-variant-caps:normal;font-variant-numeric:normal;font-feature-settings:normal;text-align:start;writing-mode:lr-tb;text-anchor:start;fill:#000000;fill-opacity:1;stroke-width:0.26458332;paint-order:stroke fill markers"
         id="path4633"
         inkscape:connector-curvature="0" />
      <path
         d="m 106.18322,65.740323 q -0.72249,0 -1.34338,-0.237067 -0.62089,-0.237067 -1.07244,-0.722489 l 0.31609,-0.541867 q 0.49671,0.462845 0.99342,0.677334 0.508,0.2032 1.07244,0.2032 0.68862,0 1.1176,-0.270934 0.42898,-0.282222 0.42898,-0.801511 0,-0.349955 -0.21449,-0.530577 -0.2032,-0.191912 -0.59831,-0.3048 -0.38382,-0.124178 -0.92569,-0.259645 -0.6096,-0.169333 -1.02729,-0.349955 -0.4064,-0.191912 -0.62089,-0.474134 -0.2032,-0.293511 -0.2032,-0.756355 0,-0.575734 0.28223,-0.948267 0.29351,-0.383822 0.79022,-0.575733 0.508,-0.2032 1.12889,-0.2032 0.67733,0 1.19662,0.214489 0.51929,0.214488 0.84667,0.598311 l -0.37254,0.519289 q -0.31609,-0.361245 -0.75635,-0.530578 -0.42898,-0.180622 -0.95956,-0.180622 -0.36124,0 -0.68862,0.1016 -0.32738,0.09031 -0.54187,0.316088 -0.2032,0.214489 -0.2032,0.598312 0,0.316088 0.15805,0.496711 0.15804,0.169333 0.47413,0.293511 0.31609,0.112889 0.77893,0.248355 0.66605,0.180623 1.16276,0.372534 0.49671,0.180622 0.76764,0.474133 0.27094,0.293511 0.27094,0.824089 0,0.824089 -0.62089,1.286933 -0.62089,0.462845 -1.63689,0.462845 z"
         style="font-style:normal;font-variant:normal;font-weight:normal;font-stretch:normal;font-size:11.28888893px;font-family:Raleway;-inkscape-font-specification:'Raleway, Normal';font-variant-ligatures:normal;font-variant-caps:normal;font-variant-numeric:normal;font-feature-settings:normal;text-align:start;writing-mode:lr-tb;text-anchor:start;fill:#000000;fill-opacity:1;stroke-width:0.26458332;paint-order:stroke fill markers"
         id="path4635"
         inkscape:connector-curvature="0" />
      <path
         d="m 114.64336,65.627434 h -0.76765 v -3.285067 q 0,-0.993422 -0.34995,-1.490133 -0.34996,-0.508 -1.00471,-0.508 -0.42898,0 -0.85796,0.225778 -0.41769,0.214488 -0.74507,0.598311 -0.31608,0.372533 -0.45155,0.857955 v 3.601156 h -0.76765 v -8.240889 h 0.76765 v 3.691467 q 0.34995,-0.654756 0.97084,-1.038578 0.63218,-0.395111 1.34338,-0.395111 0.508,0 0.85796,0.180622 0.36124,0.180622 0.57573,0.530578 0.22578,0.338666 0.32738,0.801511 0.1016,0.451555 0.1016,1.027289 z"
         style="font-style:normal;font-variant:normal;font-weight:normal;font-stretch:normal;font-size:11.28888893px;font-family:Raleway;-inkscape-font-specification:'Raleway, Normal';font-variant-ligatures:normal;font-variant-caps:normal;font-variant-numeric:normal;font-feature-settings:normal;text-align:start;writing-mode:lr-tb;text-anchor:start;fill:#000000;fill-opacity:1;stroke-width:0.26458332;paint-order:stroke fill markers"
         id="path4637"
         inkscape:connector-curvature="0" />
      <path
         d="m 115.81723,63.9341 q 0,-0.553155 0.31609,-0.948266 0.31609,-0.4064 0.86924,-0.620889 0.56445,-0.225778 1.29822,-0.225778 0.42898,0 0.89183,0.06773 0.46284,0.06773 0.82408,0.2032 v -0.496711 q 0,-0.745066 -0.44026,-1.185333 -0.44027,-0.440267 -1.2192,-0.440267 -0.47414,0 -0.93698,0.180623 -0.45156,0.169333 -0.94827,0.508 l -0.29351,-0.541867 q 0.57574,-0.395111 1.12889,-0.587022 0.55316,-0.2032 1.12889,-0.2032 1.08373,0 1.71591,0.620889 0.63218,0.620888 0.63218,1.715911 v 2.720622 q 0,0.158044 0.0677,0.237067 0.0677,0.06773 0.21449,0.07902 v 0.6096 q -0.12418,0.01129 -0.21449,0.02258 -0.0903,0.01129 -0.13546,0 -0.28223,-0.01129 -0.42898,-0.180623 -0.14676,-0.169333 -0.15805,-0.361244 l -0.0113,-0.428978 q -0.39511,0.508 -1.02728,0.790222 -0.63218,0.270934 -1.28694,0.270934 -0.56444,0 -1.02729,-0.237067 -0.45155,-0.248356 -0.7112,-0.654756 -0.24835,-0.417688 -0.24835,-0.9144 z m 3.93982,0.451556 q 0.12418,-0.158044 0.19191,-0.3048 0.0677,-0.146756 0.0677,-0.259644 v -0.857956 q -0.38382,-0.146756 -0.80151,-0.225778 -0.4064,-0.07902 -0.82409,-0.07902 -0.82408,0 -1.33208,0.327378 -0.508,0.327378 -0.508,0.891822 0,0.327378 0.16933,0.620889 0.16933,0.282222 0.49671,0.474133 0.32738,0.180622 0.76764,0.180622 0.55316,0 1.02729,-0.214488 0.48543,-0.214489 0.74507,-0.553156 z"
         style="fill:#6200ee;fill-opacity:1"
         id="path4639"
         inkscape:connector-curvature="0" />
      <path
         d="m 125.32159,65.740323 q -0.68862,0 -1.27564,-0.349956 -0.58703,-0.361244 -0.9144,-0.903111 v 1.140178 h -0.68863 v -8.240889 h 0.76765 v 3.589867 q 0.39511,-0.598312 0.94826,-0.959556 0.55316,-0.372533 1.28694,-0.372533 0.62089,0 1.10631,0.259644 0.49671,0.259645 0.84667,0.699911 0.34995,0.428978 0.53057,0.982134 0.18063,0.541866 0.18063,1.1176 0,0.620888 -0.21449,1.162755 -0.2032,0.541867 -0.58703,0.970845 -0.38382,0.417688 -0.89182,0.666044 -0.49671,0.237067 -1.09502,0.237067 z m -0.18062,-0.677334 q 0.47413,0 0.88053,-0.191911 0.4064,-0.191911 0.69991,-0.530578 0.29351,-0.338666 0.45156,-0.756355 0.15804,-0.428978 0.15804,-0.880533 0,-0.620889 -0.27093,-1.162756 -0.25965,-0.553156 -0.73378,-0.880533 -0.46284,-0.338667 -1.09502,-0.338667 -0.45156,0 -0.84667,0.2032 -0.38382,0.2032 -0.68862,0.541867 -0.29351,0.327377 -0.48542,0.722489 v 1.8288 q 0.0451,0.3048 0.23706,0.575733 0.19192,0.259644 0.47414,0.451555 0.29351,0.191912 0.6096,0.3048 0.31609,0.112889 0.6096,0.112889 z"
         style="fill:#6200ee;fill-opacity:1"
         id="path4641"
         inkscape:connector-curvature="0" />
      <path
         d="m 129.44415,57.386545 h 0.76765 v 6.9088 q 0,0.440267 0.15804,0.575733 0.15804,0.135467 0.38382,0.135467 0.2032,0 0.4064,-0.04516 0.2032,-0.04515 0.34996,-0.09031 l 0.13546,0.620889 q -0.21448,0.09031 -0.53057,0.146756 -0.3048,0.05644 -0.53058,0.05644 -0.51929,0 -0.83538,-0.3048 -0.3048,-0.3048 -0.3048,-0.835378 z"
         style="fill:#6200ee;fill-opacity:1"
         id="path4643"
         inkscape:connector-curvature="0" />
      <path
         d="m 135.01504,65.740323 q -0.63218,0 -1.17404,-0.237067 -0.54187,-0.248356 -0.93698,-0.666044 -0.39511,-0.428978 -0.62089,-0.982134 -0.21449,-0.553155 -0.21449,-1.185333 0,-0.824089 0.37254,-1.512711 0.38382,-0.688622 1.04986,-1.095022 0.66605,-0.417689 1.51271,-0.417689 0.86925,0 1.51271,0.417689 0.65476,0.417688 1.02729,1.106311 0.37254,0.677333 0.37254,1.490133 0,0.09031 0,0.180622 0,0.07902 -0.0113,0.124178 h -5.03485 q 0.0565,0.632178 0.34996,1.128889 0.3048,0.485422 0.77893,0.778933 0.48542,0.282222 1.04987,0.282222 0.57573,0 1.08373,-0.293511 0.51929,-0.293511 0.72249,-0.767644 l 0.66605,0.180622 q -0.18063,0.417689 -0.55316,0.756356 -0.37253,0.338666 -0.88053,0.530577 -0.49671,0.180623 -1.07245,0.180623 z M 132.84758,62.4101 h 4.34622 q -0.0452,-0.643466 -0.34996,-1.128888 -0.29351,-0.485423 -0.77893,-0.756356 -0.47413,-0.282222 -1.04987,-0.282222 -0.57573,0 -1.04986,0.282222 -0.47414,0.270933 -0.77894,0.767644 -0.29351,0.485423 -0.33866,1.1176 z"
         style="fill:#6200ee;fill-opacity:1"
         id="path4645"
         inkscape:connector-curvature="0" />
      <path
         inkscape:connector-curvature="0"
         d="m 80.918178,65.730035 q -0.722487,0 -1.343374,-0.237067 -0.620884,-0.237067 -1.072434,-0.722489 l 0.31609,-0.541867 q 0.496707,0.462845 0.993414,0.677334 0.507997,0.2032 1.072434,0.2032 0.688617,0 1.117594,-0.270934 0.428977,-0.282222 0.428977,-0.801511 0,-0.349955 -0.21449,-0.530577 -0.203197,-0.191912 -0.598304,-0.3048 -0.38382,-0.124178 -0.925687,-0.259645 -0.609597,-0.169333 -1.027284,-0.349955 -0.406397,-0.191912 -0.620887,-0.474134 -0.203197,-0.293511 -0.203197,-0.756355 0,-0.575734 0.282227,-0.948267 0.29351,-0.383822 0.790217,-0.575733 0.507997,-0.2032 1.128884,-0.2032 0.677324,0 1.196611,0.214489 0.519287,0.214488 0.846667,0.598311 l -0.37254,0.519289 q -0.316087,-0.361245 -0.756344,-0.530578 -0.428977,-0.180622 -0.959554,-0.180622 -0.36124,0 -0.688617,0.1016 -0.327377,0.09031 -0.541867,0.316088 -0.2032,0.214489 -0.2032,0.598312 0,0.316088 0.15805,0.496711 0.15804,0.169333 0.474127,0.293511 0.31609,0.112889 0.778927,0.248355 0.666044,0.180623 1.162754,0.372534 0.496707,0.180622 0.767634,0.474133 0.27094,0.293511 0.27094,0.824089 0,0.824089 -0.620887,1.286933 -0.620887,0.462845 -1.636881,0.462845 z"
         style="font-style:normal;font-variant:normal;font-weight:normal;font-stretch:normal;font-size:11.28888893px;line-height:1.25;font-family:Raleway;-inkscape-font-specification:'Raleway, Normal';font-variant-ligatures:normal;font-variant-caps:normal;font-variant-numeric:normal;font-feature-settings:normal;text-align:start;letter-spacing:0px;word-spacing:0px;writing-mode:lr-tb;text-anchor:start;fill:#000000;fill-opacity:1;stroke:none;stroke-width:0.26458332;paint-order:stroke fill markers"
         id="path4635-6" />
    </g>
    <g
       id="g1086-4-8"
       transform="matrix(0.12462597,0,0,0.12462597,63.643093,57.892666)">
      <g
         id="g882"
         transform="matrix(1.2748202,0,0,1.2748202,35.092322,12.751305)">
        <path
           inkscape:connector-curvature="0"
           d="M 39.305126,20.097617 C 39.306872,30.722709 30.694023,39.336974 20.06893,39.336974 9.4438383,39.336974 0.83098891,30.722709 0.83273501,20.097617 0.83098891,9.472525 9.4438383,0.85826 20.06893,0.85826 c 10.625093,0 19.237942,8.614265 19.236196,19.239357 z"
           id="path2579-7-5"
           style="fill:url(#linearGradient2414);fill-opacity:1;fill-rule:nonzero;stroke:none;stroke-width:2;stroke-linecap:round;stroke-linejoin:miter;stroke-miterlimit:4;stroke-dasharray:none;stroke-dashoffset:0;stroke-opacity:1" />
        <g
           transform="matrix(0.2023605,0.05261402,-0.08535221,0.1801688,82.466007,8.8909557)"
           id="g3405-3-1">
          <path
             inkscape:connector-curvature="0"
             d="m -268.37291,198.11153 c 0,2.96799 -2.63715,5.37401 -5.89024,5.37401 -3.25309,0 -5.89024,-2.40602 -5.89024,-5.37401 0,-2.96799 2.63715,-5.37401 5.89024,-5.37401 3.25309,0 5.89024,2.40602 5.89024,5.37401 z"
             transform="matrix(1,0,0.4754098,1,-74.950861,-0.1885618)"
             id="path3387-2-5"
             style="opacity:1;fill:#dec50c;fill-opacity:1;fill-rule:nonzero;stroke:none;stroke-width:2;stroke-linecap:round;stroke-linejoin:miter;stroke-miterlimit:4;stroke-dasharray:none;stroke-dashoffset:0;stroke-opacity:1" />
          <path
             inkscape:connector-curvature="0"
             d="m -268.37291,198.11153 c 0,2.96799 -2.63715,5.37401 -5.89024,5.37401 -3.25309,0 -5.89024,-2.40602 -5.89024,-5.37401 0,-2.96799 2.63715,-5.37401 5.89024,-5.37401 3.25309,0 5.89024,2.40602 5.89024,5.37401 z"
             transform="matrix(0.8684211,0,0.4128559,0.8684211,-98.645465,25.878744)"
             id="path3395-9-2"
             style="opacity:1;fill:url(#linearGradient927);fill-opacity:1;fill-rule:nonzero;stroke:none;stroke-width:2;stroke-linecap:round;stroke-linejoin:miter;stroke-miterlimit:4;stroke-dasharray:none;stroke-dashoffset:0;stroke-opacity:1" />
        </g>
        <g
           transform="matrix(0.178447,0.04171819,-0.00606089,0.1428576,57.615972,16.027556)"
           id="g3421-6-9">
          <path
             inkscape:connector-curvature="0"
             d="m -268.37291,198.11153 c 0,2.96799 -2.63715,5.37401 -5.89024,5.37401 -3.25309,0 -5.89024,-2.40602 -5.89024,-5.37401 0,-2.96799 2.63715,-5.37401 5.89024,-5.37401 3.25309,0 5.89024,2.40602 5.89024,5.37401 z"
             transform="matrix(1,0,0.4754098,1,-74.950861,-0.1885618)"
             id="path3423-2-1"
             style="opacity:1;fill:#dec50c;fill-opacity:1;fill-rule:nonzero;stroke:none;stroke-width:2;stroke-linecap:round;stroke-linejoin:miter;stroke-miterlimit:4;stroke-dasharray:none;stroke-dashoffset:0;stroke-opacity:1" />
          <path
             inkscape:connector-curvature="0"
             d="m -268.37291,198.11153 c 0,2.96799 -2.63715,5.37401 -5.89024,5.37401 -3.25309,0 -5.89024,-2.40602 -5.89024,-5.37401 0,-2.96799 2.63715,-5.37401 5.89024,-5.37401 3.25309,0 5.89024,2.40602 5.89024,5.37401 z"
             transform="matrix(0.8684211,0,0.4128559,0.8684211,-98.645465,25.878744)"
             id="path3425-6-1"
             style="opacity:1;fill:url(#linearGradient1025-8);fill-opacity:1;fill-rule:nonzero;stroke:none;stroke-width:2;stroke-linecap:round;stroke-linejoin:miter;stroke-miterlimit:4;stroke-dasharray:none;stroke-dashoffset:0;stroke-opacity:1" />
        </g>
      </g>
    </g>
  </g>
</svg>
